<?xml version="1.0" encoding="UTF-8" standalone="no"?>
<!DOCTYPE svg PUBLIC "-//W3C//DTD SVG 1.1//EN"
 "http://www.w3.org/Graphics/SVG/1.1/DTD/svg11.dtd">
<!-- Generated by graphviz version 12.2.1 (20241206.2353)
 -->
<!-- Title: G Pages: 1 -->
<svg width="1148pt" height="976pt"
 viewBox="0.00 0.00 1148.03 976.15" xmlns="http://www.w3.org/2000/svg" xmlns:xlink="http://www.w3.org/1999/xlink">
<g id="graph0" class="graph" transform="scale(1 1) rotate(0) translate(4 972.15)">
<title>G</title><style>.edge>path:hover{stroke-width:8}</style>
<polygon fill="white" stroke="none" points="-4,4 -4,-972.15 1144.03,-972.15 1144.03,4 -4,4"/>
<!-- bs4 -->
<g id="node1" class="node">
<title>bs4</title><style>.edge>path:hover{stroke-width:8}</style>
<ellipse fill="#c04040" stroke="black" cx="224.89" cy="-558.05" rx="27" ry="18"/>
<text text-anchor="middle" x="224.89" y="-554.18" font-family="Helvetica,sans-Serif" font-size="10.00" fill="#ffffff">bs4</text>
</g>
<!-- modules_data_sources_website_scraping -->
<g id="node29" class="node">
<title>modules_data_sources_website_scraping</title><style>.edge>path:hover{stroke-width:8}</style>
<ellipse fill="#3a6688" stroke="black" cx="332.89" cy="-296.79" rx="64.88" ry="29.52"/>
<text text-anchor="middle" x="332.89" y="-304.16" font-family="Helvetica,sans-Serif" font-size="10.00" fill="#ffffff">modules.</text>
<text text-anchor="middle" x="332.89" y="-292.91" font-family="Helvetica,sans-Serif" font-size="10.00" fill="#ffffff">data_sources.</text>
<text text-anchor="middle" x="332.89" y="-281.66" font-family="Helvetica,sans-Serif" font-size="10.00" fill="#ffffff">website_scraping</text>
</g>
<!-- bs4&#45;&gt;modules_data_sources_website_scraping -->
<g id="edge1" class="edge">
<title>bs4&#45;&gt;modules_data_sources_website_scraping</title><style>.edge>path:hover{stroke-width:8}</style>
<path fill="none" stroke="black" d="M219.91,-540.02C210.53,-504.32 193.96,-420.21 226.89,-362.31 237.14,-344.3 254.65,-330.71 272.52,-320.77"/>
<polygon fill="#c04040" stroke="black" points="273.83,-324.03 281.09,-316.31 270.61,-317.82 273.83,-324.03"/>
</g>
<!-- dotenv -->
<g id="node2" class="node">
<title>dotenv</title><style>.edge>path:hover{stroke-width:8}</style>
<ellipse fill="#b8723d" stroke="black" cx="172.89" cy="-637.19" rx="27" ry="18"/>
<text text-anchor="middle" x="172.89" y="-633.31" font-family="Helvetica,sans-Serif" font-size="10.00" fill="#000000">dotenv</text>
</g>
<!-- main_py -->
<g id="node25" class="node">
<title>main_py</title><style>.edge>path:hover{stroke-width:8}</style>
<ellipse fill="#396a6a" stroke="black" cx="559.89" cy="-18" rx="29.88" ry="18"/>
<text text-anchor="middle" x="559.89" y="-14.12" font-family="Helvetica,sans-Serif" font-size="10.00" fill="#ffffff">main.py</text>
</g>
<!-- dotenv&#45;&gt;main_py -->
<g id="edge2" class="edge">
<title>dotenv&#45;&gt;main_py</title><style>.edge>path:hover{stroke-width:8}</style>
<path fill="none" stroke="black" d="M171.11,-618.91C165.49,-556.22 153.18,-336.63 237.89,-188.13 264.28,-141.87 279.65,-131.57 327.89,-109 375.15,-86.89 577.16,-122.23 559.89,-73"/>
<path fill="none" stroke="black" d="M559.89,-72C557.02,-64.36 556.13,-55.66 556.21,-47.54"/>
<polygon fill="#b8723d" stroke="black" points="559.69,-47.96 556.79,-37.77 552.7,-47.54 559.69,-47.96"/>
</g>
<!-- modules_data_sources_chatgpt_txt_data_extraction -->
<g id="node28" class="node">
<title>modules_data_sources_chatgpt_txt_data_extraction</title><style>.edge>path:hover{stroke-width:8}</style>
<ellipse fill="#4c87b3" stroke="black" cx="332.89" cy="-391.83" rx="96.7" ry="29.52"/>
<text text-anchor="middle" x="332.89" y="-399.21" font-family="Helvetica,sans-Serif" font-size="10.00" fill="#ffffff">modules.</text>
<text text-anchor="middle" x="332.89" y="-387.96" font-family="Helvetica,sans-Serif" font-size="10.00" fill="#ffffff">data_sources.</text>
<text text-anchor="middle" x="332.89" y="-376.71" font-family="Helvetica,sans-Serif" font-size="10.00" fill="#ffffff">chatgpt_txt_data_extraction</text>
</g>
<!-- dotenv&#45;&gt;modules_data_sources_chatgpt_txt_data_extraction -->
<g id="edge3" class="edge">
<title>dotenv&#45;&gt;modules_data_sources_chatgpt_txt_data_extraction</title><style>.edge>path:hover{stroke-width:8}</style>
<path fill="none" stroke="black" d="M195.25,-626.73C214.97,-617.37 243.22,-601.3 260.89,-579.62 296.33,-536.12 315.71,-473.2 325.18,-432.65"/>
<polygon fill="#b8723d" stroke="black" points="328.56,-433.59 327.32,-423.07 321.73,-432.07 328.56,-433.59"/>
</g>
<!-- dotenv_ipython -->
<g id="node3" class="node">
<title>dotenv_ipython</title><style>.edge>path:hover{stroke-width:8}</style>
<ellipse fill="#b3784c" stroke="black" cx="172.89" cy="-716.32" rx="46.3" ry="18"/>
<text text-anchor="middle" x="172.89" y="-712.45" font-family="Helvetica,sans-Serif" font-size="10.00" fill="#000000">dotenv.ipython</text>
</g>
<!-- dotenv_ipython&#45;&gt;dotenv -->
<g id="edge4" class="edge">
<title>dotenv_ipython&#45;&gt;dotenv</title><style>.edge>path:hover{stroke-width:8}</style>
<path fill="none" stroke="black" d="M172.89,-698.2C172.89,-688.98 172.89,-677.36 172.89,-666.8"/>
<polygon fill="#b3784c" stroke="black" points="176.39,-667.04 172.89,-657.04 169.39,-667.04 176.39,-667.04"/>
</g>
<!-- dotenv_main -->
<g id="node4" class="node">
<title>dotenv_main</title><style>.edge>path:hover{stroke-width:8}</style>
<ellipse fill="#b8723d" stroke="black" cx="125.89" cy="-795.45" rx="40.09" ry="18"/>
<text text-anchor="middle" x="125.89" y="-791.58" font-family="Helvetica,sans-Serif" font-size="10.00" fill="#000000">dotenv.main</text>
</g>
<!-- dotenv_main&#45;&gt;dotenv -->
<g id="edge5" class="edge">
<title>dotenv_main&#45;&gt;dotenv</title><style>.edge>path:hover{stroke-width:8}</style>
<path fill="none" stroke="black" d="M119.92,-777.16C113.87,-756.69 106.85,-721.95 117.89,-694.75 123.71,-680.43 135.08,-667.75 145.98,-658.04"/>
<polygon fill="#b8723d" stroke="black" points="147.92,-660.98 153.35,-651.88 143.43,-655.61 147.92,-660.98"/>
</g>
<!-- dotenv_main&#45;&gt;dotenv_ipython -->
<g id="edge6" class="edge">
<title>dotenv_main&#45;&gt;dotenv_ipython</title><style>.edge>path:hover{stroke-width:8}</style>
<path fill="none" stroke="black" d="M136.09,-777.72C142.08,-767.88 149.8,-755.22 156.62,-744.03"/>
<polygon fill="#b8723d" stroke="black" points="159.55,-745.94 161.76,-735.58 153.57,-742.3 159.55,-745.94"/>
</g>
<!-- dotenv_parser -->
<g id="node5" class="node">
<title>dotenv_parser</title><style>.edge>path:hover{stroke-width:8}</style>
<ellipse fill="#b67e53" stroke="black" cx="139.89" cy="-874.59" rx="43.64" ry="18"/>
<text text-anchor="middle" x="139.89" y="-870.71" font-family="Helvetica,sans-Serif" font-size="10.00" fill="#000000">dotenv.parser</text>
</g>
<!-- dotenv_parser&#45;&gt;dotenv_main -->
<g id="edge7" class="edge">
<title>dotenv_parser&#45;&gt;dotenv_main</title><style>.edge>path:hover{stroke-width:8}</style>
<path fill="none" stroke="black" d="M136.78,-856.47C135.11,-847.25 133,-835.63 131.08,-825.07"/>
<polygon fill="#b67e53" stroke="black" points="134.54,-824.5 129.31,-815.28 127.65,-825.75 134.54,-824.5"/>
</g>
<!-- dotenv_variables -->
<g id="node6" class="node">
<title>dotenv_variables</title><style>.edge>path:hover{stroke-width:8}</style>
<ellipse fill="#b67e53" stroke="black" cx="38.89" cy="-874.59" rx="38.89" ry="21.57"/>
<text text-anchor="middle" x="38.89" y="-876.34" font-family="Helvetica,sans-Serif" font-size="10.00" fill="#000000">dotenv.</text>
<text text-anchor="middle" x="38.89" y="-865.09" font-family="Helvetica,sans-Serif" font-size="10.00" fill="#000000">variables</text>
</g>
<!-- dotenv_variables&#45;&gt;dotenv_main -->
<g id="edge8" class="edge">
<title>dotenv_variables&#45;&gt;dotenv_main</title><style>.edge>path:hover{stroke-width:8}</style>
<path fill="none" stroke="black" d="M59.07,-855.7C71.22,-844.92 86.83,-831.09 99.9,-819.5"/>
<polygon fill="#b67e53" stroke="black" points="102.17,-822.16 107.34,-812.91 97.53,-816.92 102.17,-822.16"/>
</g>
<!-- google_auth_httplib2 -->
<g id="node7" class="node">
<title>google_auth_httplib2</title><style>.edge>path:hover{stroke-width:8}</style>
<ellipse fill="#c0ad40" stroke="black" cx="314.89" cy="-874.59" rx="62.28" ry="18"/>
<text text-anchor="middle" x="314.89" y="-870.71" font-family="Helvetica,sans-Serif" font-size="10.00" fill="#000000">google_auth_httplib2</text>
</g>
<!-- googleapiclient__auth -->
<g id="node11" class="node">
<title>googleapiclient__auth</title><style>.edge>path:hover{stroke-width:8}</style>
<polygon fill="blue" stroke="black" points="321.64,-734.32 238.14,-734.32 238.14,-698.32 321.64,-698.32 321.64,-734.32"/>
<text text-anchor="middle" x="279.89" y="-718.07" font-family="Helvetica,sans-Serif" font-size="10.00" fill="white">googleapiclient.</text>
<text text-anchor="middle" x="279.89" y="-706.82" font-family="Helvetica,sans-Serif" font-size="10.00" fill="white">_auth</text>
</g>
<!-- google_auth_httplib2&#45;&gt;googleapiclient__auth -->
<g id="edge9" class="edge">
<title>google_auth_httplib2&#45;&gt;googleapiclient__auth</title><style>.edge>path:hover{stroke-width:8}</style>
<path fill="none" stroke="black" d="M349.89,-794.45C349.89,-772.94 334.77,-754.76 318.59,-741.47"/>
<polygon fill="#c0ad40" stroke="black" points="320.85,-738.8 310.78,-735.51 316.61,-744.36 320.85,-738.8"/>
<path fill="none" stroke="black" d="M327.72,-856.51C337.71,-841.51 349.89,-818.66 349.89,-796.45"/>
</g>
<!-- googleapiclient_discovery -->
<g id="node13" class="node">
<title>googleapiclient_discovery</title><style>.edge>path:hover{stroke-width:8}</style>
<ellipse fill="#397a1e" stroke="black" cx="582.89" cy="-558.05" rx="59.04" ry="21.57"/>
<text text-anchor="middle" x="582.89" y="-559.8" font-family="Helvetica,sans-Serif" font-size="10.00" fill="#ffffff">googleapiclient.</text>
<text text-anchor="middle" x="582.89" y="-548.55" font-family="Helvetica,sans-Serif" font-size="10.00" fill="#ffffff">discovery</text>
</g>
<!-- google_auth_httplib2&#45;&gt;googleapiclient_discovery -->
<g id="edge10" class="edge">
<title>google_auth_httplib2&#45;&gt;googleapiclient_discovery</title><style>.edge>path:hover{stroke-width:8}</style>
<path fill="none" stroke="black" d="M349.89,-794.45C349.89,-759.73 324.27,-661.63 349.89,-638.19"/>
</g>
<!-- google_auth_oauthlib -->
<g id="node8" class="node">
<title>google_auth_oauthlib</title><style>.edge>path:hover{stroke-width:8}</style>
<ellipse fill="#9fc247" stroke="black" cx="901.89" cy="-637.19" rx="63.61" ry="18"/>
<text text-anchor="middle" x="901.89" y="-633.31" font-family="Helvetica,sans-Serif" font-size="10.00" fill="#000000">google_auth_oauthlib</text>
</g>
<!-- gsheets_google_authenticate -->
<g id="node22" class="node">
<title>gsheets_google_authenticate</title><style>.edge>path:hover{stroke-width:8}</style>
<ellipse fill="#3db84e" stroke="black" cx="683.89" cy="-478.92" rx="72.83" ry="21.57"/>
<text text-anchor="middle" x="683.89" y="-480.67" font-family="Helvetica,sans-Serif" font-size="10.00" fill="#000000">gsheets.</text>
<text text-anchor="middle" x="683.89" y="-469.42" font-family="Helvetica,sans-Serif" font-size="10.00" fill="#000000">google_authenticate</text>
</g>
<!-- google_auth_oauthlib&#45;&gt;gsheets_google_authenticate -->
<g id="edge11" class="edge">
<title>google_auth_oauthlib&#45;&gt;gsheets_google_authenticate</title><style>.edge>path:hover{stroke-width:8}</style>
<path fill="none" stroke="black" d="M935.98,-621.69C965.42,-607.09 1000.53,-583.29 981.89,-559.05"/>
<path fill="none" stroke="black" d="M981.89,-557.05C955.3,-522.48 841.48,-500.64 762.46,-489.35"/>
<polygon fill="#9fc247" stroke="black" points="762.96,-485.88 752.57,-487.97 761.99,-492.82 762.96,-485.88"/>
</g>
<!-- google_auth_oauthlib_flow -->
<g id="node9" class="node">
<title>google_auth_oauthlib_flow</title><style>.edge>path:hover{stroke-width:8}</style>
<ellipse fill="#95b34c" stroke="black" cx="1061.89" cy="-637.19" rx="78.14" ry="21.57"/>
<text text-anchor="middle" x="1061.89" y="-638.94" font-family="Helvetica,sans-Serif" font-size="10.00" fill="#000000">google_auth_oauthlib.</text>
<text text-anchor="middle" x="1061.89" y="-627.69" font-family="Helvetica,sans-Serif" font-size="10.00" fill="#000000">flow</text>
</g>
<!-- google_auth_oauthlib_flow&#45;&gt;gsheets_google_authenticate -->
<g id="edge12" class="edge">
<title>google_auth_oauthlib_flow&#45;&gt;gsheets_google_authenticate</title><style>.edge>path:hover{stroke-width:8}</style>
<path fill="none" stroke="black" d="M1037.64,-616.22C1020.74,-601.53 998.36,-580.46 981.89,-559.05"/>
</g>
<!-- googleapiclient -->
<g id="node10" class="node">
<title>googleapiclient</title><style>.edge>path:hover{stroke-width:8}</style>
<ellipse fill="#53f910" stroke="black" cx="457.89" cy="-558.05" rx="47.63" ry="18"/>
<text text-anchor="middle" x="457.89" y="-554.18" font-family="Helvetica,sans-Serif" font-size="10.00" fill="#000000">googleapiclient</text>
</g>
<!-- gsheets_export_results -->
<g id="node21" class="node">
<title>gsheets_export_results</title><style>.edge>path:hover{stroke-width:8}</style>
<ellipse fill="#439d50" stroke="black" cx="540.89" cy="-391.83" rx="54.8" ry="21.57"/>
<text text-anchor="middle" x="540.89" y="-393.58" font-family="Helvetica,sans-Serif" font-size="10.00" fill="#ffffff">gsheets.</text>
<text text-anchor="middle" x="540.89" y="-382.33" font-family="Helvetica,sans-Serif" font-size="10.00" fill="#ffffff">export_results</text>
</g>
<!-- googleapiclient&#45;&gt;gsheets_export_results -->
<g id="edge13" class="edge">
<title>googleapiclient&#45;&gt;gsheets_export_results</title><style>.edge>path:hover{stroke-width:8}</style>
<path fill="none" stroke="black" d="M477.57,-541.3C495.56,-526.43 522.4,-503.03 542.89,-479.92"/>
<path fill="none" stroke="black" d="M542.89,-477.92C555.52,-463.68 554.93,-442.24 551.24,-424.44"/>
<polygon fill="#53f910" stroke="black" points="554.66,-423.7 548.83,-414.85 547.87,-425.4 554.66,-423.7"/>
</g>
<!-- gsheets_gsheets_create -->
<g id="node23" class="node">
<title>gsheets_gsheets_create</title><style>.edge>path:hover{stroke-width:8}</style>
<ellipse fill="#439d50" stroke="black" cx="671.89" cy="-391.83" rx="58.51" ry="21.57"/>
<text text-anchor="middle" x="671.89" y="-393.58" font-family="Helvetica,sans-Serif" font-size="10.00" fill="#ffffff">gsheets.</text>
<text text-anchor="middle" x="671.89" y="-382.33" font-family="Helvetica,sans-Serif" font-size="10.00" fill="#ffffff">gsheets_create</text>
</g>
<!-- googleapiclient&#45;&gt;gsheets_gsheets_create -->
<g id="edge14" class="edge">
<title>googleapiclient&#45;&gt;gsheets_gsheets_create</title><style>.edge>path:hover{stroke-width:8}</style>
<path fill="none" stroke="black" d="M542.89,-477.92C566.33,-451.49 599.79,-429.74 626.76,-414.84"/>
<polygon fill="#53f910" stroke="black" points="628.26,-418.01 635.41,-410.19 624.94,-411.85 628.26,-418.01"/>
</g>
<!-- googleapiclient&#45;&gt;modules_data_sources_website_scraping -->
<g id="edge15" class="edge">
<title>googleapiclient&#45;&gt;modules_data_sources_website_scraping</title><style>.edge>path:hover{stroke-width:8}</style>
<path fill="none" stroke="black" d="M458.99,-539.84C459.73,-524.16 460.19,-500.41 457.89,-479.92"/>
</g>
<!-- googleapiclient__auth&#45;&gt;googleapiclient_discovery -->
<g id="edge16" class="edge">
<title>googleapiclient__auth&#45;&gt;googleapiclient_discovery</title><style>.edge>path:hover{stroke-width:8}</style>
<path fill="none" stroke="black" d="M349.89,-636.19C359.3,-627.58 358.83,-621.97 369.89,-615.62 427.47,-582.55 450.87,-597.24 514.89,-579.62 519.12,-578.46 523.48,-577.22 527.86,-575.95"/>
<polygon fill="blue" stroke="black" points="528.66,-579.37 537.27,-573.19 526.69,-572.65 528.66,-579.37"/>
<path fill="none" stroke="black" d="M294.06,-697.92C307.64,-681.71 329.08,-657.23 349.89,-638.19"/>
</g>
<!-- googleapiclient_http -->
<g id="node16" class="node">
<title>googleapiclient_http</title><style>.edge>path:hover{stroke-width:8}</style>
<polygon fill="blue" stroke="black" points="462.64,-655.19 379.14,-655.19 379.14,-619.19 462.64,-619.19 462.64,-655.19"/>
<text text-anchor="middle" x="420.89" y="-638.94" font-family="Helvetica,sans-Serif" font-size="10.00" fill="white">googleapiclient.</text>
<text text-anchor="middle" x="420.89" y="-627.69" font-family="Helvetica,sans-Serif" font-size="10.00" fill="white">http</text>
</g>
<!-- googleapiclient__auth&#45;&gt;googleapiclient_http -->
<g id="edge17" class="edge">
<title>googleapiclient__auth&#45;&gt;googleapiclient_http</title><style>.edge>path:hover{stroke-width:8}</style>
<path fill="none" stroke="black" d="M321.48,-692.57C339.71,-682.6 361.07,-670.91 379.3,-660.94"/>
<polygon fill="blue" stroke="black" points="319.96,-689.41 312.86,-697.28 323.31,-695.56 319.96,-689.41"/>
<polygon fill="blue" stroke="black" points="380.93,-664.04 388.03,-656.17 377.57,-657.9 380.93,-664.04"/>
</g>
<!-- googleapiclient__helpers -->
<g id="node12" class="node">
<title>googleapiclient__helpers</title><style>.edge>path:hover{stroke-width:8}</style>
<ellipse fill="#60db2f" stroke="black" cx="491.89" cy="-874.59" rx="59.04" ry="21.57"/>
<text text-anchor="middle" x="491.89" y="-876.34" font-family="Helvetica,sans-Serif" font-size="10.00" fill="#000000">googleapiclient.</text>
<text text-anchor="middle" x="491.89" y="-865.09" font-family="Helvetica,sans-Serif" font-size="10.00" fill="#000000">_helpers</text>
</g>
<!-- googleapiclient__helpers&#45;&gt;googleapiclient_discovery -->
<g id="edge18" class="edge">
<title>googleapiclient__helpers&#45;&gt;googleapiclient_discovery</title><style>.edge>path:hover{stroke-width:8}</style>
<path fill="none" stroke="black" d="M809.89,-794.45C846.46,-735.41 828.87,-705 809.89,-638.19"/>
<path fill="none" stroke="black" d="M548.51,-868.08C630.95,-858.76 777.72,-836.83 809.89,-796.45"/>
</g>
<!-- googleapiclient_errors -->
<g id="node15" class="node">
<title>googleapiclient_errors</title><style>.edge>path:hover{stroke-width:8}</style>
<ellipse fill="#5bc431" stroke="black" cx="491.89" cy="-795.45" rx="59.04" ry="21.57"/>
<text text-anchor="middle" x="491.89" y="-797.2" font-family="Helvetica,sans-Serif" font-size="10.00" fill="#000000">googleapiclient.</text>
<text text-anchor="middle" x="491.89" y="-785.95" font-family="Helvetica,sans-Serif" font-size="10.00" fill="#000000">errors</text>
</g>
<!-- googleapiclient__helpers&#45;&gt;googleapiclient_errors -->
<g id="edge19" class="edge">
<title>googleapiclient__helpers&#45;&gt;googleapiclient_errors</title><style>.edge>path:hover{stroke-width:8}</style>
<path fill="none" stroke="black" d="M491.89,-852.92C491.89,-845.54 491.89,-837.04 491.89,-828.92"/>
<polygon fill="#60db2f" stroke="black" points="495.39,-828.96 491.89,-818.96 488.39,-828.96 495.39,-828.96"/>
</g>
<!-- googleapiclient__helpers&#45;&gt;googleapiclient_http -->
<g id="edge20" class="edge">
<title>googleapiclient__helpers&#45;&gt;googleapiclient_http</title><style>.edge>path:hover{stroke-width:8}</style>
<path fill="none" stroke="black" d="M457.89,-856.73C436.56,-843.74 411.82,-823.44 404.89,-796.45"/>
</g>
<!-- googleapiclient_schema -->
<g id="node19" class="node">
<title>googleapiclient_schema</title><style>.edge>path:hover{stroke-width:8}</style>
<ellipse fill="#65ac49" stroke="black" cx="652.89" cy="-795.45" rx="59.04" ry="21.57"/>
<text text-anchor="middle" x="652.89" y="-797.2" font-family="Helvetica,sans-Serif" font-size="10.00" fill="#000000">googleapiclient.</text>
<text text-anchor="middle" x="652.89" y="-785.95" font-family="Helvetica,sans-Serif" font-size="10.00" fill="#000000">schema</text>
</g>
<!-- googleapiclient__helpers&#45;&gt;googleapiclient_schema -->
<g id="edge21" class="edge">
<title>googleapiclient__helpers&#45;&gt;googleapiclient_schema</title><style>.edge>path:hover{stroke-width:8}</style>
<path fill="none" stroke="black" d="M526.83,-856.85C550.56,-845.48 582.18,-830.33 607.81,-818.05"/>
<polygon fill="#60db2f" stroke="black" points="609.15,-821.29 616.66,-813.81 606.13,-814.98 609.15,-821.29"/>
</g>
<!-- googleapiclient_discovery&#45;&gt;gsheets_export_results -->
<g id="edge22" class="edge">
<title>googleapiclient_discovery&#45;&gt;gsheets_export_results</title><style>.edge>path:hover{stroke-width:8}</style>
<path fill="none" stroke="black" d="M582.89,-477.92C585.54,-457.9 576.03,-437.55 565.39,-421.77"/>
<polygon fill="#397a1e" stroke="black" points="568.32,-419.84 559.61,-413.81 562.65,-423.95 568.32,-419.84"/>
<path fill="none" stroke="black" d="M581.4,-536C580.67,-520.44 580.39,-498.77 582.89,-479.92"/>
</g>
<!-- googleapiclient_discovery&#45;&gt;gsheets_gsheets_create -->
<g id="edge23" class="edge">
<title>googleapiclient_discovery&#45;&gt;gsheets_gsheets_create</title><style>.edge>path:hover{stroke-width:8}</style>
<path fill="none" stroke="black" d="M582.89,-477.92C586.42,-451.27 607.96,-430.28 628.96,-415.81"/>
<polygon fill="#397a1e" stroke="black" points="630.74,-418.82 637.23,-410.44 626.94,-412.94 630.74,-418.82"/>
</g>
<!-- googleapiclient_discovery&#45;&gt;modules_data_sources_website_scraping -->
<g id="edge24" class="edge">
<title>googleapiclient_discovery&#45;&gt;modules_data_sources_website_scraping</title><style>.edge>path:hover{stroke-width:8}</style>
<path fill="none" stroke="black" d="M544.64,-541.35C508.73,-525.41 460.18,-500.26 457.89,-479.92"/>
</g>
<!-- googleapiclient_discovery_cache -->
<g id="node14" class="node">
<title>googleapiclient_discovery_cache</title><style>.edge>path:hover{stroke-width:8}</style>
<ellipse fill="#60b83d" stroke="black" cx="582.89" cy="-637.19" rx="63.29" ry="21.57"/>
<text text-anchor="middle" x="582.89" y="-638.94" font-family="Helvetica,sans-Serif" font-size="10.00" fill="#000000">googleapiclient.</text>
<text text-anchor="middle" x="582.89" y="-627.69" font-family="Helvetica,sans-Serif" font-size="10.00" fill="#000000">discovery_cache</text>
</g>
<!-- googleapiclient_discovery_cache&#45;&gt;googleapiclient_discovery -->
<g id="edge25" class="edge">
<title>googleapiclient_discovery_cache&#45;&gt;googleapiclient_discovery</title><style>.edge>path:hover{stroke-width:8}</style>
<path fill="none" stroke="black" d="M582.89,-615.52C582.89,-608.14 582.89,-599.64 582.89,-591.52"/>
<polygon fill="#60b83d" stroke="black" points="586.39,-591.56 582.89,-581.56 579.39,-591.56 586.39,-591.56"/>
</g>
<!-- googleapiclient_errors&#45;&gt;googleapiclient_discovery -->
<g id="edge26" class="edge">
<title>googleapiclient_errors&#45;&gt;googleapiclient_discovery</title><style>.edge>path:hover{stroke-width:8}</style>
<path fill="none" stroke="black" d="M523.52,-776.92C537.4,-767.37 552.26,-754.16 559.89,-737.89 568.03,-720.53 568.55,-711.86 559.89,-694.75 542.14,-659.68 485,-676.89 491.89,-638.19"/>
</g>
<!-- googleapiclient_errors&#45;&gt;googleapiclient_http -->
<g id="edge27" class="edge">
<title>googleapiclient_errors&#45;&gt;googleapiclient_http</title><style>.edge>path:hover{stroke-width:8}</style>
<path fill="none" stroke="black" d="M456.16,-777.95C434.05,-765.12 409.1,-744.86 404.89,-717.32"/>
</g>
<!-- googleapiclient_model -->
<g id="node18" class="node">
<title>googleapiclient_model</title><style>.edge>path:hover{stroke-width:8}</style>
<ellipse fill="#60b83d" stroke="black" cx="491.89" cy="-716.32" rx="59.04" ry="21.57"/>
<text text-anchor="middle" x="491.89" y="-718.07" font-family="Helvetica,sans-Serif" font-size="10.00" fill="#000000">googleapiclient.</text>
<text text-anchor="middle" x="491.89" y="-706.82" font-family="Helvetica,sans-Serif" font-size="10.00" fill="#000000">model</text>
</g>
<!-- googleapiclient_errors&#45;&gt;googleapiclient_model -->
<g id="edge28" class="edge">
<title>googleapiclient_errors&#45;&gt;googleapiclient_model</title><style>.edge>path:hover{stroke-width:8}</style>
<path fill="none" stroke="black" d="M491.89,-773.78C491.89,-766.41 491.89,-757.91 491.89,-749.78"/>
<polygon fill="#5bc431" stroke="black" points="495.39,-749.83 491.89,-739.83 488.39,-749.83 495.39,-749.83"/>
</g>
<!-- googleapiclient_http&#45;&gt;googleapiclient_discovery -->
<g id="edge30" class="edge">
<title>googleapiclient_http&#45;&gt;googleapiclient_discovery</title><style>.edge>path:hover{stroke-width:8}</style>
<path fill="none" stroke="black" d="M457.25,-618.88C481.02,-607.56 512.27,-592.68 537.65,-580.6"/>
<polygon fill="blue" stroke="black" points="538.88,-583.89 546.4,-576.43 535.87,-577.57 538.88,-583.89"/>
</g>
<!-- googleapiclient_mimeparse -->
<g id="node17" class="node">
<title>googleapiclient_mimeparse</title><style>.edge>path:hover{stroke-width:8}</style>
<ellipse fill="#70b653" stroke="black" cx="722.89" cy="-637.19" rx="59.04" ry="21.57"/>
<text text-anchor="middle" x="722.89" y="-638.94" font-family="Helvetica,sans-Serif" font-size="10.00" fill="#000000">googleapiclient.</text>
<text text-anchor="middle" x="722.89" y="-627.69" font-family="Helvetica,sans-Serif" font-size="10.00" fill="#000000">mimeparse</text>
</g>
<!-- googleapiclient_mimeparse&#45;&gt;googleapiclient_discovery -->
<g id="edge31" class="edge">
<title>googleapiclient_mimeparse&#45;&gt;googleapiclient_discovery</title><style>.edge>path:hover{stroke-width:8}</style>
<path fill="none" stroke="black" d="M691.12,-618.68C671.43,-607.84 645.92,-593.78 624.61,-582.04"/>
<polygon fill="#70b653" stroke="black" points="626.31,-578.98 615.86,-577.22 622.93,-585.11 626.31,-578.98"/>
</g>
<!-- googleapiclient_model&#45;&gt;googleapiclient_discovery -->
<g id="edge32" class="edge">
<title>googleapiclient_model&#45;&gt;googleapiclient_discovery</title><style>.edge>path:hover{stroke-width:8}</style>
<path fill="none" stroke="black" d="M491.89,-636.19C496.2,-612.01 516.04,-593.68 536.11,-580.97"/>
<polygon fill="#60b83d" stroke="black" points="537.77,-584.05 544.6,-575.95 534.21,-578.02 537.77,-584.05"/>
<path fill="none" stroke="black" d="M489.93,-694.52C488.93,-678.9 488.53,-657.04 491.89,-638.19"/>
</g>
<!-- googleapiclient_model&#45;&gt;googleapiclient_http -->
<g id="edge33" class="edge">
<title>googleapiclient_model&#45;&gt;googleapiclient_http</title><style>.edge>path:hover{stroke-width:8}</style>
<path fill="none" stroke="black" d="M473.61,-695.46C464.75,-685.83 454,-674.16 444.53,-663.87"/>
<polygon fill="#60b83d" stroke="black" points="447.31,-661.72 437.96,-656.73 442.16,-666.46 447.31,-661.72"/>
</g>
<!-- googleapiclient_schema&#45;&gt;googleapiclient_discovery -->
<g id="edge34" class="edge">
<title>googleapiclient_schema&#45;&gt;googleapiclient_discovery</title><style>.edge>path:hover{stroke-width:8}</style>
<path fill="none" stroke="black" d="M809.89,-636.19C800.87,-603.6 711.84,-581.3 648.01,-569.36"/>
<polygon fill="#65ac49" stroke="black" points="648.76,-565.94 638.3,-567.6 647.51,-572.83 648.76,-565.94"/>
<path fill="none" stroke="black" d="M657.04,-773.77C662.53,-751.47 674.27,-716.27 696.89,-694.75 737.58,-656.04 824.88,-692.31 809.89,-638.19"/>
</g>
<!-- gsheets -->
<g id="node20" class="node">
<title>gsheets</title><style>.edge>path:hover{stroke-width:8}</style>
<ellipse fill="#3bce50" stroke="black" cx="472.89" cy="-130.57" rx="29.88" ry="18"/>
<text text-anchor="middle" x="472.89" y="-126.69" font-family="Helvetica,sans-Serif" font-size="10.00" fill="#000000">gsheets</text>
</g>
<!-- gsheets&#45;&gt;main_py -->
<g id="edge35" class="edge">
<title>gsheets&#45;&gt;main_py</title><style>.edge>path:hover{stroke-width:8}</style>
<path fill="none" stroke="black" d="M494.73,-118.16C521.31,-103.89 562.41,-80.42 559.89,-73"/>
</g>
<!-- gsheets_export_results&#45;&gt;main_py -->
<g id="edge36" class="edge">
<title>gsheets_export_results&#45;&gt;main_py</title><style>.edge>path:hover{stroke-width:8}</style>
<path fill="none" stroke="black" d="M671.89,-295.79C694.02,-215 578.77,-230.76 549.89,-152.13 543.28,-134.14 547.3,-127.99 549.89,-109 552.13,-92.55 565.23,-88.72 559.89,-73"/>
<path fill="none" stroke="black" d="M575.05,-374.59C613.96,-354.94 672.15,-321.57 671.89,-297.79"/>
</g>
<!-- gsheets_google_authenticate&#45;&gt;gsheets_export_results -->
<g id="edge37" class="edge">
<title>gsheets_google_authenticate&#45;&gt;gsheets_export_results</title><style>.edge>path:hover{stroke-width:8}</style>
<path fill="none" stroke="black" d="M652.15,-459.04C630.79,-446.33 602.49,-429.49 579.78,-415.97"/>
<polygon fill="#3db84e" stroke="black" points="581.79,-413.09 571.4,-410.99 578.21,-419.11 581.79,-413.09"/>
</g>
<!-- gsheets_google_authenticate&#45;&gt;gsheets_gsheets_create -->
<g id="edge38" class="edge">
<title>gsheets_google_authenticate&#45;&gt;gsheets_gsheets_create</title><style>.edge>path:hover{stroke-width:8}</style>
<path fill="none" stroke="black" d="M680.92,-456.89C679.56,-447.2 677.91,-435.5 676.39,-424.76"/>
<polygon fill="#3db84e" stroke="black" points="679.9,-424.54 675.03,-415.12 672.97,-425.51 679.9,-424.54"/>
</g>
<!-- gsheets_gsheets_create&#45;&gt;main_py -->
<g id="edge39" class="edge">
<title>gsheets_gsheets_create&#45;&gt;main_py</title><style>.edge>path:hover{stroke-width:8}</style>
<path fill="none" stroke="black" d="M672.02,-369.77C672.11,-350.91 672.16,-322.5 671.89,-297.79"/>
</g>
<!-- httplib2 -->
<g id="node24" class="node">
<title>httplib2</title><style>.edge>path:hover{stroke-width:8}</style>
<ellipse fill="#19e68e" stroke="black" cx="359.89" cy="-950.15" rx="28.11" ry="18"/>
<text text-anchor="middle" x="359.89" y="-946.28" font-family="Helvetica,sans-Serif" font-size="10.00" fill="#000000">httplib2</text>
</g>
<!-- httplib2&#45;&gt;google_auth_httplib2 -->
<g id="edge40" class="edge">
<title>httplib2&#45;&gt;google_auth_httplib2</title><style>.edge>path:hover{stroke-width:8}</style>
<path fill="none" stroke="black" d="M349.9,-932.83C344.43,-923.88 337.5,-912.55 331.26,-902.34"/>
<polygon fill="#19e68e" stroke="black" points="334.31,-900.63 326.11,-893.93 328.34,-904.28 334.31,-900.63"/>
</g>
<!-- httplib2&#45;&gt;googleapiclient__auth -->
<g id="edge41" class="edge">
<title>httplib2&#45;&gt;googleapiclient__auth</title><style>.edge>path:hover{stroke-width:8}</style>
<path fill="none" stroke="black" d="M332.56,-945.22C304.84,-939.62 263.34,-926.42 243.89,-896.15 213.53,-848.91 242.51,-781.31 263.18,-744.22"/>
<polygon fill="#19e68e" stroke="black" points="266,-746.33 267.98,-735.92 259.94,-742.83 266,-746.33"/>
</g>
<!-- httplib2&#45;&gt;googleapiclient_discovery -->
<g id="edge42" class="edge">
<title>httplib2&#45;&gt;googleapiclient_discovery</title><style>.edge>path:hover{stroke-width:8}</style>
<path fill="none" stroke="black" d="M388.38,-949.25C469.4,-947.83 702.2,-931.64 809.89,-796.45"/>
</g>
<!-- httplib2&#45;&gt;googleapiclient_http -->
<g id="edge43" class="edge">
<title>httplib2&#45;&gt;googleapiclient_http</title><style>.edge>path:hover{stroke-width:8}</style>
<path fill="none" stroke="black" d="M370.46,-933.21C387.49,-905.54 417.81,-846.78 404.89,-796.45"/>
<path fill="none" stroke="black" d="M404.89,-794.45C396.99,-761.1 410.07,-751.21 404.89,-717.32"/>
<path fill="none" stroke="black" d="M404.89,-715.32C402.4,-699 405.81,-680.92 410.12,-666.37"/>
<polygon fill="#19e68e" stroke="black" points="413.41,-667.58 413.2,-656.99 406.75,-665.4 413.41,-667.58"/>
</g>
<!-- modules -->
<g id="node26" class="node">
<title>modules</title><style>.edge>path:hover{stroke-width:8}</style>
<ellipse fill="#3b8fce" stroke="black" cx="589.89" cy="-130.57" rx="31.21" ry="18"/>
<text text-anchor="middle" x="589.89" y="-126.69" font-family="Helvetica,sans-Serif" font-size="10.00" fill="#ffffff">modules</text>
</g>
<!-- modules&#45;&gt;main_py -->
<g id="edge44" class="edge">
<title>modules&#45;&gt;main_py</title><style>.edge>path:hover{stroke-width:8}</style>
<path fill="none" stroke="black" d="M579.5,-113.37C572.91,-102.39 564.75,-87.32 559.89,-73"/>
</g>
<!-- modules_data_sources -->
<g id="node27" class="node">
<title>modules_data_sources</title><style>.edge>path:hover{stroke-width:8}</style>
<ellipse fill="#478dc2" stroke="black" cx="299.89" cy="-209.7" rx="52.68" ry="21.57"/>
<text text-anchor="middle" x="299.89" y="-211.45" font-family="Helvetica,sans-Serif" font-size="10.00" fill="#ffffff">modules.</text>
<text text-anchor="middle" x="299.89" y="-200.2" font-family="Helvetica,sans-Serif" font-size="10.00" fill="#ffffff">data_sources</text>
</g>
<!-- modules_fetch_data -->
<g id="node30" class="node">
<title>modules_fetch_data</title><style>.edge>path:hover{stroke-width:8}</style>
<ellipse fill="#467ca4" stroke="black" cx="380.89" cy="-130.57" rx="43.66" ry="21.57"/>
<text text-anchor="middle" x="380.89" y="-132.32" font-family="Helvetica,sans-Serif" font-size="10.00" fill="#ffffff">modules.</text>
<text text-anchor="middle" x="380.89" y="-121.07" font-family="Helvetica,sans-Serif" font-size="10.00" fill="#ffffff">fetch_data</text>
</g>
<!-- modules_data_sources&#45;&gt;modules_fetch_data -->
<g id="edge45" class="edge">
<title>modules_data_sources&#45;&gt;modules_fetch_data</title><style>.edge>path:hover{stroke-width:8}</style>
<path fill="none" stroke="black" d="M319.91,-189.63C329.99,-180.03 342.37,-168.25 353.33,-157.81"/>
<polygon fill="#478dc2" stroke="black" points="355.45,-160.62 360.28,-151.19 350.63,-155.55 355.45,-160.62"/>
</g>
<!-- modules_data_sources_chatgpt_txt_data_extraction&#45;&gt;modules_data_sources_website_scraping -->
<g id="edge46" class="edge">
<title>modules_data_sources_chatgpt_txt_data_extraction&#45;&gt;modules_data_sources_website_scraping</title><style>.edge>path:hover{stroke-width:8}</style>
<path fill="none" stroke="black" d="M332.89,-361.9C332.89,-354.38 332.89,-346.13 332.89,-338.13"/>
<polygon fill="#4c87b3" stroke="black" points="336.39,-338.21 332.89,-328.21 329.39,-338.21 336.39,-338.21"/>
</g>
<!-- modules_data_sources_website_scraping&#45;&gt;modules_fetch_data -->
<g id="edge47" class="edge">
<title>modules_data_sources_website_scraping&#45;&gt;modules_fetch_data</title><style>.edge>path:hover{stroke-width:8}</style>
<path fill="none" stroke="black" d="M347.21,-267.76C352.44,-256.63 358.01,-243.57 361.89,-231.27 368.85,-209.17 373.68,-183.48 376.72,-163.71"/>
<polygon fill="#3a6688" stroke="black" points="380.15,-164.44 378.13,-154.04 373.22,-163.43 380.15,-164.44"/>
</g>
<!-- modules_fetch_data&#45;&gt;main_py -->
<g id="edge48" class="edge">
<title>modules_fetch_data&#45;&gt;main_py</title><style>.edge>path:hover{stroke-width:8}</style>
<path fill="none" stroke="black" d="M414.08,-116.15C420.61,-113.66 427.44,-111.17 433.89,-109 489.1,-90.45 578.61,-128.15 559.89,-73"/>
</g>
<!-- pandas -->
<g id="node31" class="node">
<title>pandas</title><style>.edge>path:hover{stroke-width:8}</style>
<ellipse fill="#4052c0" stroke="black" cx="776.89" cy="-391.83" rx="28.11" ry="18"/>
<text text-anchor="middle" x="776.89" y="-387.96" font-family="Helvetica,sans-Serif" font-size="10.00" fill="#ffffff">pandas</text>
</g>
<!-- table_table_generator -->
<g id="node34" class="node">
<title>table_table_generator</title><style>.edge>path:hover{stroke-width:8}</style>
<ellipse fill="#954cb3" stroke="black" cx="764.89" cy="-209.7" rx="58.51" ry="21.57"/>
<text text-anchor="middle" x="764.89" y="-211.45" font-family="Helvetica,sans-Serif" font-size="10.00" fill="#ffffff">table.</text>
<text text-anchor="middle" x="764.89" y="-200.2" font-family="Helvetica,sans-Serif" font-size="10.00" fill="#ffffff">table_generator</text>
</g>
<!-- pandas&#45;&gt;table_table_generator -->
<g id="edge49" class="edge">
<title>pandas&#45;&gt;table_table_generator</title><style>.edge>path:hover{stroke-width:8}</style>
<path fill="none" stroke="black" d="M775.74,-373.56C773.73,-343.4 769.55,-280.69 767.01,-242.49"/>
<polygon fill="#4052c0" stroke="black" points="770.53,-242.74 766.38,-233 763.55,-243.21 770.53,-242.74"/>
</g>
<!-- requests -->
<g id="node32" class="node">
<title>requests</title><style>.edge>path:hover{stroke-width:8}</style>
<ellipse fill="#6440c0" stroke="black" cx="360.89" cy="-558.05" rx="31.66" ry="18"/>
<text text-anchor="middle" x="360.89" y="-554.18" font-family="Helvetica,sans-Serif" font-size="10.00" fill="#ffffff">requests</text>
</g>
<!-- requests&#45;&gt;modules_data_sources_website_scraping -->
<g id="edge50" class="edge">
<title>requests&#45;&gt;modules_data_sources_website_scraping</title><style>.edge>path:hover{stroke-width:8}</style>
<path fill="none" stroke="black" d="M457.89,-477.92C454.84,-425.94 468.01,-405.48 438.89,-362.31 427.3,-345.13 409.46,-331.75 391.69,-321.74"/>
<polygon fill="#6440c0" stroke="black" points="393.68,-318.84 383.21,-317.24 390.4,-325.02 393.68,-318.84"/>
<path fill="none" stroke="black" d="M383.51,-544.96C412.83,-528.47 460.02,-498.84 457.89,-479.92"/>
</g>
<!-- table -->
<g id="node33" class="node">
<title>table</title><style>.edge>path:hover{stroke-width:8}</style>
<ellipse fill="#9a53b6" stroke="black" cx="665.89" cy="-130.57" rx="27" ry="18"/>
<text text-anchor="middle" x="665.89" y="-126.69" font-family="Helvetica,sans-Serif" font-size="10.00" fill="#ffffff">table</text>
</g>
<!-- table&#45;&gt;main_py -->
<g id="edge51" class="edge">
<title>table&#45;&gt;main_py</title><style>.edge>path:hover{stroke-width:8}</style>
<path fill="none" stroke="black" d="M646.17,-118.09C640.91,-115.09 635.21,-111.88 629.89,-109 599.14,-92.32 571.14,-106.13 559.89,-73"/>
</g>
<!-- table_table_main -->
<g id="node35" class="node">
<title>table_table_main</title><style>.edge>path:hover{stroke-width:8}</style>
<ellipse fill="#954cb3" stroke="black" cx="755.89" cy="-130.57" rx="44.72" ry="21.57"/>
<text text-anchor="middle" x="755.89" y="-132.32" font-family="Helvetica,sans-Serif" font-size="10.00" fill="#ffffff">table.</text>
<text text-anchor="middle" x="755.89" y="-121.07" font-family="Helvetica,sans-Serif" font-size="10.00" fill="#ffffff">table_main</text>
</g>
<!-- table_table_generator&#45;&gt;table_table_main -->
<g id="edge52" class="edge">
<title>table_table_generator&#45;&gt;table_table_main</title><style>.edge>path:hover{stroke-width:8}</style>
<path fill="none" stroke="black" d="M762.48,-188.03C761.61,-180.57 760.6,-171.96 759.65,-163.75"/>
<polygon fill="#954cb3" stroke="black" points="763.15,-163.59 758.52,-154.07 756.2,-164.4 763.15,-163.59"/>
</g>
<!-- table_table_main&#45;&gt;main_py -->
<g id="edge53" class="edge">
<title>table_table_main&#45;&gt;main_py</title><style>.edge>path:hover{stroke-width:8}</style>
<path fill="none" stroke="black" d="M722.11,-116.02C715.46,-113.54 708.49,-111.09 701.89,-109 639.81,-89.38 580.82,-134.65 559.89,-73"/>
</g>
<!-- uritemplate -->
<g id="node36" class="node">
<title>uritemplate</title><style>.edge>path:hover{stroke-width:8}</style>
<ellipse fill="#c040ad" stroke="black" cx="743.89" cy="-716.32" rx="37.87" ry="18"/>
<text text-anchor="middle" x="743.89" y="-712.45" font-family="Helvetica,sans-Serif" font-size="10.00" fill="#ffffff">uritemplate</text>
</g>
<!-- uritemplate&#45;&gt;googleapiclient_discovery -->
<g id="edge54" class="edge">
<title>uritemplate&#45;&gt;googleapiclient_discovery</title><style>.edge>path:hover{stroke-width:8}</style>
<path fill="none" stroke="black" d="M768.36,-702.12C790.1,-688.41 817.37,-665.19 809.89,-638.19"/>
</g>
<!-- utils -->
<g id="node37" class="node">
<title>utils</title><style>.edge>path:hover{stroke-width:8}</style>
<ellipse fill="#b6537e" stroke="black" cx="845.89" cy="-130.57" rx="27" ry="18"/>
<text text-anchor="middle" x="845.89" y="-126.69" font-family="Helvetica,sans-Serif" font-size="10.00" fill="#ffffff">utils</text>
</g>
<!-- utils&#45;&gt;main_py -->
<g id="edge55" class="edge">
<title>utils&#45;&gt;main_py</title><style>.edge>path:hover{stroke-width:8}</style>
<path fill="none" stroke="black" d="M827.09,-117.07C821.73,-113.99 815.75,-111.01 809.89,-109 756.81,-90.76 577.93,-126.15 559.89,-73"/>
</g>
<!-- utils_logger_config -->
<g id="node38" class="node">
<title>utils_logger_config</title><style>.edge>path:hover{stroke-width:8}</style>
<ellipse fill="#b6537e" stroke="black" cx="942.89" cy="-130.57" rx="52.15" ry="21.57"/>
<text text-anchor="middle" x="942.89" y="-132.32" font-family="Helvetica,sans-Serif" font-size="10.00" fill="#ffffff">utils.</text>
<text text-anchor="middle" x="942.89" y="-121.07" font-family="Helvetica,sans-Serif" font-size="10.00" fill="#ffffff">logger_config</text>
</g>
<!-- utils_logger_config&#45;&gt;main_py -->
<g id="edge56" class="edge">
<title>utils_logger_config&#45;&gt;main_py</title><style>.edge>path:hover{stroke-width:8}</style>
<path fill="none" stroke="black" d="M904.85,-115.35C897.32,-112.93 889.42,-110.67 881.89,-109 846.74,-101.2 571.46,-107.09 559.89,-73"/>
</g>
</g>
</svg>
